<svg width="186" height="34" viewBox="0 0 186 34" fill="none" xmlns="http://www.w3.org/2000/svg">
<path d="M19.7969 17.8789C19.4805 20.5859 18.4785 22.6777 16.791 24.1543C15.1152 25.6191 12.8828 26.3516 10.0938 26.3516C7.07031 26.3516 4.64453 25.2676 2.81641 23.0996C1 20.9316 0.0917969 18.0312 0.0917969 14.3984V11.9375C0.0917969 9.55859 0.513672 7.4668 1.35742 5.66211C2.21289 3.85742 3.41992 2.47461 4.97852 1.51367C6.53711 0.541016 8.3418 0.0546875 10.3926 0.0546875C13.1113 0.0546875 15.291 0.816406 16.9316 2.33984C18.5723 3.85156 19.5273 5.94922 19.7969 8.63281H16.4043C16.1113 6.59375 15.4727 5.11719 14.4883 4.20312C13.5156 3.28906 12.1504 2.83203 10.3926 2.83203C8.23633 2.83203 6.54297 3.62891 5.3125 5.22266C4.09375 6.81641 3.48438 9.08398 3.48438 12.0254V14.5039C3.48438 17.2812 4.06445 19.4902 5.22461 21.1309C6.38477 22.7715 8.00781 23.5918 10.0938 23.5918C11.9688 23.5918 13.4043 23.1699 14.4004 22.3262C15.4082 21.4707 16.0762 19.9883 16.4043 17.8789H19.7969ZM23.0488 16.3145C23.0488 14.4512 23.4121 12.7754 24.1387 11.2871C24.877 9.79883 25.8965 8.65039 27.1973 7.8418C28.5098 7.0332 30.0039 6.62891 31.6797 6.62891C34.2695 6.62891 36.3613 7.52539 37.9551 9.31836C39.5605 11.1113 40.3633 13.4961 40.3633 16.4727V16.7012C40.3633 18.5527 40.0059 20.2168 39.291 21.6934C38.5879 23.1582 37.5742 24.3008 36.25 25.1211C34.9375 25.9414 33.4258 26.3516 31.7148 26.3516C29.1367 26.3516 27.0449 25.4551 25.4395 23.6621C23.8457 21.8691 23.0488 19.4961 23.0488 16.543V16.3145ZM26.3184 16.7012C26.3184 18.8105 26.8047 20.5039 27.7773 21.7812C28.7617 23.0586 30.0742 23.6973 31.7148 23.6973C33.3672 23.6973 34.6797 23.0527 35.6523 21.7637C36.625 20.4629 37.1113 18.6465 37.1113 16.3145C37.1113 14.2285 36.6133 12.541 35.6172 11.252C34.6328 9.95117 33.3203 9.30078 31.6797 9.30078C30.0742 9.30078 28.7793 9.93945 27.7949 11.2168C26.8105 12.4941 26.3184 14.3223 26.3184 16.7012ZM47.5176 6.98047L47.623 9.37109C49.0762 7.54297 50.9746 6.62891 53.3184 6.62891C57.3379 6.62891 59.3652 8.89648 59.4004 13.4316V26H56.1484V13.4141C56.1367 12.043 55.8203 11.0293 55.1992 10.373C54.5898 9.7168 53.6348 9.38867 52.334 9.38867C51.2793 9.38867 50.3535 9.66992 49.5566 10.2324C48.7598 10.7949 48.1387 11.5332 47.6934 12.4473V26H44.4414V6.98047H47.5176ZM70.5801 21.5879L75.291 6.98047H78.6133L71.793 26H69.3145L62.4238 6.98047H65.7461L70.5801 21.5879ZM89.3887 26.3516C86.8105 26.3516 84.7129 25.5078 83.0957 23.8203C81.4785 22.1211 80.6699 19.8535 80.6699 17.0176V16.4199C80.6699 14.5332 81.0273 12.8516 81.7422 11.375C82.4688 9.88672 83.4766 8.72656 84.7656 7.89453C86.0664 7.05078 87.4727 6.62891 88.9844 6.62891C91.457 6.62891 93.3789 7.44336 94.75 9.07227C96.1211 10.7012 96.8066 13.0332 96.8066 16.0684V17.4219H83.9219C83.9688 19.2969 84.5137 20.8145 85.5566 21.9746C86.6113 23.123 87.9473 23.6973 89.5645 23.6973C90.7129 23.6973 91.6855 23.4629 92.4824 22.9941C93.2793 22.5254 93.9766 21.9043 94.5742 21.1309L96.5605 22.6777C94.9668 25.127 92.5762 26.3516 89.3887 26.3516ZM88.9844 9.30078C87.6719 9.30078 86.5703 9.78125 85.6797 10.7422C84.7891 11.6914 84.2383 13.0273 84.0273 14.75H93.5547V14.5039C93.4609 12.8516 93.0156 11.5742 92.2188 10.6719C91.4219 9.75781 90.3438 9.30078 88.9844 9.30078ZM109.779 9.89844C109.287 9.81641 108.754 9.77539 108.18 9.77539C106.047 9.77539 104.6 10.6836 103.838 12.5V26H100.586V6.98047H103.75L103.803 9.17773C104.869 7.47852 106.381 6.62891 108.338 6.62891C108.971 6.62891 109.451 6.71094 109.779 6.875V9.89844ZM118.076 2.375V6.98047H121.627V9.49414H118.076V21.2891C118.076 22.0508 118.234 22.625 118.551 23.0117C118.867 23.3867 119.406 23.5742 120.168 23.5742C120.543 23.5742 121.059 23.5039 121.715 23.3633V26C120.859 26.2344 120.027 26.3516 119.219 26.3516C117.766 26.3516 116.67 25.9121 115.932 25.0332C115.193 24.1543 114.824 22.9062 114.824 21.2891V9.49414H111.361V6.98047H114.824V2.375H118.076ZM140.084 19.3203H129.361L126.953 26H123.473L133.246 0.40625H136.199L145.99 26H142.527L140.084 19.3203ZM130.381 16.543H139.082L134.723 4.57227L130.381 16.543ZM164.992 16.7012C164.992 19.5957 164.33 21.9277 163.006 23.6973C161.682 25.4668 159.889 26.3516 157.627 26.3516C155.318 26.3516 153.502 25.6191 152.178 24.1543V33.3125H148.926V6.98047H151.896L152.055 9.08984C153.379 7.44922 155.219 6.62891 157.574 6.62891C159.859 6.62891 161.664 7.49023 162.988 9.21289C164.324 10.9355 164.992 13.332 164.992 16.4023V16.7012ZM161.74 16.332C161.74 14.1875 161.283 12.4941 160.369 11.252C159.455 10.0098 158.201 9.38867 156.607 9.38867C154.639 9.38867 153.162 10.2617 152.178 12.0078V21.0957C153.15 22.8301 154.639 23.6973 156.643 23.6973C158.201 23.6973 159.438 23.082 160.352 21.8516C161.277 20.6094 161.74 18.7695 161.74 16.332ZM185.207 16.7012C185.207 19.5957 184.545 21.9277 183.221 23.6973C181.896 25.4668 180.104 26.3516 177.842 26.3516C175.533 26.3516 173.717 25.6191 172.393 24.1543V33.3125H169.141V6.98047H172.111L172.27 9.08984C173.594 7.44922 175.434 6.62891 177.789 6.62891C180.074 6.62891 181.879 7.49023 183.203 9.21289C184.539 10.9355 185.207 13.332 185.207 16.4023V16.7012ZM181.955 16.332C181.955 14.1875 181.498 12.4941 180.584 11.252C179.67 10.0098 178.416 9.38867 176.822 9.38867C174.854 9.38867 173.377 10.2617 172.393 12.0078V21.0957C173.365 22.8301 174.854 23.6973 176.857 23.6973C178.416 23.6973 179.652 23.082 180.566 21.8516C181.492 20.6094 181.955 18.7695 181.955 16.332Z" fill="white"/>
</svg>
