<svg width="618" height="481" viewBox="0 0 618 481" fill="none" xmlns="http://www.w3.org/2000/svg">
<path d="M129.656 402.855C129.452 402.855 129.255 402.771 129.11 402.622C128.965 402.472 128.884 402.269 128.884 402.058V155.174C128.884 154.962 128.965 154.76 129.11 154.61C129.255 154.46 129.452 154.376 129.656 154.376C129.861 154.376 130.058 154.46 130.203 154.61C130.348 154.76 130.429 154.962 130.429 155.174V402.058C130.429 402.269 130.348 402.472 130.203 402.622C130.058 402.771 129.861 402.855 129.656 402.855Z" fill="#D1D3D4"/>
<path d="M222.48 402.855C222.275 402.855 222.079 402.771 221.934 402.622C221.789 402.472 221.707 402.269 221.707 402.058V155.174C221.707 154.962 221.789 154.76 221.934 154.61C222.079 154.46 222.275 154.376 222.48 154.376C222.685 154.376 222.881 154.46 223.026 154.61C223.171 154.76 223.252 154.962 223.252 155.174V402.058C223.252 402.269 223.171 402.472 223.026 402.622C222.881 402.771 222.685 402.855 222.48 402.855Z" fill="#D1D3D4"/>
<path d="M315.18 402.855C314.975 402.855 314.779 402.771 314.634 402.622C314.489 402.472 314.408 402.269 314.408 402.058V155.174C314.408 154.962 314.489 154.76 314.634 154.61C314.779 154.46 314.975 154.376 315.18 154.376C315.385 154.376 315.581 154.46 315.726 154.61C315.871 154.76 315.953 154.962 315.953 155.174V402.058C315.953 402.269 315.871 402.472 315.726 402.622C315.581 402.771 315.385 402.855 315.18 402.855Z" fill="#D1D3D4"/>
<path d="M408.035 402.855C407.83 402.855 407.633 402.771 407.488 402.622C407.343 402.472 407.262 402.269 407.262 402.058V155.174C407.262 154.962 407.343 154.76 407.488 154.61C407.633 154.46 407.83 154.376 408.035 154.376C408.239 154.376 408.436 154.46 408.581 154.61C408.726 154.76 408.807 154.962 408.807 155.174V402.058C408.807 402.269 408.726 402.472 408.581 402.622C408.436 402.771 408.239 402.855 408.035 402.855Z" fill="#D1D3D4"/>
<path d="M500.827 402.855C500.622 402.855 500.426 402.771 500.281 402.622C500.136 402.472 500.055 402.269 500.055 402.058V155.174C500.055 154.962 500.136 154.76 500.281 154.61C500.426 154.46 500.622 154.376 500.827 154.376C501.032 154.376 501.229 154.46 501.373 154.61C501.518 154.76 501.6 154.962 501.6 155.174V402.058C501.6 402.269 501.518 402.472 501.373 402.622C501.229 402.771 501.032 402.855 500.827 402.855Z" fill="#D1D3D4"/>
<path d="M500.827 155.94H129.656C129.452 155.94 129.255 155.856 129.11 155.706C128.965 155.557 128.884 155.354 128.884 155.142C128.884 154.931 128.965 154.728 129.11 154.578C129.255 154.428 129.452 154.344 129.656 154.344H500.827C501.032 154.344 501.229 154.428 501.373 154.578C501.518 154.728 501.6 154.931 501.6 155.142C501.6 155.354 501.518 155.557 501.373 155.706C501.229 155.856 501.032 155.94 500.827 155.94Z" fill="#D1D3D4"/>
<path d="M500.827 237.596H129.656C129.452 237.596 129.255 237.512 129.11 237.363C128.965 237.213 128.884 237.01 128.884 236.799C128.884 236.587 128.965 236.384 129.11 236.234C129.255 236.085 129.452 236.001 129.656 236.001H500.827C501.032 236.001 501.229 236.085 501.373 236.234C501.518 236.384 501.6 236.587 501.6 236.799C501.6 237.01 501.518 237.213 501.373 237.363C501.229 237.512 501.032 237.596 500.827 237.596Z" fill="#D1D3D4"/>
<path d="M500.827 319.221H129.656C129.452 319.221 129.255 319.137 129.11 318.987C128.965 318.837 128.884 318.635 128.884 318.423C128.884 318.211 128.965 318.008 129.11 317.859C129.255 317.709 129.452 317.625 129.656 317.625H500.827C501.032 317.625 501.229 317.709 501.373 317.859C501.518 318.008 501.6 318.211 501.6 318.423C501.6 318.635 501.518 318.837 501.373 318.987C501.229 319.137 501.032 319.221 500.827 319.221Z" fill="#D1D3D4"/>
<path d="M522.009 403.557H95.9909C95.786 403.557 95.5895 403.473 95.4446 403.324C95.2997 403.174 95.2184 402.971 95.2184 402.76C95.2223 402.549 95.305 402.349 95.449 402.2C95.593 402.051 95.7872 401.966 95.9909 401.962H522.009C522.213 401.966 522.407 402.051 522.551 402.2C522.695 402.349 522.778 402.549 522.782 402.76C522.782 402.971 522.7 403.174 522.555 403.324C522.41 403.473 522.214 403.557 522.009 403.557Z" fill="#D1D3D4"/>
<path d="M163.137 395.006V412.46C163.137 419.081 181.429 424.442 204.002 424.442C226.574 424.442 244.883 419.081 244.883 412.46V395.006H163.137Z" fill="white"/>
<path d="M203.94 425.24C183.469 425.24 162.302 420.454 162.302 412.476V395.006C162.302 394.794 162.384 394.591 162.529 394.442C162.673 394.292 162.87 394.208 163.075 394.208H244.882C245.087 394.208 245.284 394.292 245.429 394.442C245.574 394.591 245.655 394.794 245.655 395.006V412.46C245.655 420.453 224.473 425.24 203.94 425.24ZM163.847 395.803V412.46C163.847 417.869 179.962 423.628 203.94 423.628C227.918 423.628 244.11 417.853 244.11 412.46V395.803H163.847Z" fill="#231F20"/>
<path d="M204.002 406.972C226.571 406.972 244.867 401.614 244.867 395.006C244.867 388.397 226.571 383.04 204.002 383.04C181.433 383.04 163.137 388.397 163.137 395.006C163.137 401.614 181.433 406.972 204.002 406.972Z" fill="#231F20"/>
<path d="M203.94 407.674C180.641 407.674 162.395 402.106 162.395 395.006C162.395 387.906 180.641 382.242 203.94 382.242C227.239 382.242 245.501 387.81 245.501 395.006C245.501 402.201 227.3 407.674 203.94 407.674ZM203.94 383.742C179.9 383.742 163.77 389.581 163.77 395.022C163.77 400.462 179.915 406.286 203.94 406.286C227.965 406.286 244.11 400.462 244.11 395.022C244.11 389.581 228.042 383.726 203.94 383.726V383.742Z" fill="#231F20"/>
<path d="M154.778 368.313V385.784C154.778 392.389 173.071 397.75 195.643 397.75C218.216 397.75 236.524 392.389 236.524 385.784V368.313H154.778Z" fill="white"/>
<path d="M195.643 398.548C175.172 398.548 154.006 393.761 154.006 385.784V368.313C154.006 368.102 154.087 367.899 154.232 367.749C154.377 367.6 154.573 367.516 154.778 367.516H236.524C236.729 367.516 236.925 367.6 237.07 367.749C237.215 367.899 237.297 368.102 237.297 368.313V385.784C237.297 393.777 216.115 398.548 195.643 398.548ZM155.551 369.111V385.784C155.551 391.177 171.665 396.952 195.643 396.952C219.622 396.952 235.813 391.177 235.813 385.784V369.111H155.551Z" fill="#231F20"/>
<path d="M195.643 380.279C218.213 380.279 236.509 374.922 236.509 368.313C236.509 361.705 218.213 356.347 195.643 356.347C173.074 356.347 154.778 361.705 154.778 368.313C154.778 374.922 173.074 380.279 195.643 380.279Z" fill="white"/>
<path d="M195.643 381.077C175.172 381.077 154.006 376.291 154.006 368.313C154.006 360.336 175.172 355.55 195.643 355.55C216.115 355.55 237.358 360.336 237.358 368.313C237.358 376.291 216.115 381.077 195.643 381.077ZM195.643 357.145C171.665 357.145 155.551 362.921 155.551 368.313C155.551 373.706 171.665 379.482 195.643 379.482C219.622 379.482 235.813 373.706 235.813 368.313C235.813 362.921 219.637 357.145 195.643 357.145Z" fill="#231F20"/>
<path d="M195.643 376.371C178.231 376.371 160.587 373.61 160.587 368.393C160.587 363.176 178.231 360.336 195.643 360.336C213.056 360.336 230.699 363.096 230.699 368.393C230.699 373.69 213.071 376.371 195.643 376.371ZM195.643 361.852C174.879 361.852 162.132 365.617 162.132 368.313C162.132 371.01 174.879 374.695 195.643 374.695C216.408 374.695 229.154 370.93 229.154 368.313C229.154 365.697 216.408 361.852 195.643 361.852Z" fill="#D1D3D4"/>
<path d="M259.112 398.149V415.603C259.112 422.224 277.42 427.585 299.993 427.585C322.565 427.585 340.858 422.224 340.858 415.603V398.149H259.112Z" fill="white"/>
<path d="M299.993 428.383C279.521 428.383 258.278 423.597 258.278 415.619V398.149C258.278 397.937 258.359 397.734 258.504 397.585C258.649 397.435 258.845 397.351 259.05 397.351H340.796C341.001 397.351 341.197 397.435 341.342 397.585C341.487 397.734 341.569 397.937 341.569 398.149V415.603C341.63 423.597 320.464 428.383 299.993 428.383ZM259.823 398.946V415.603C259.823 420.996 275.937 426.772 299.993 426.772C324.048 426.772 340.163 420.98 340.163 415.603V398.946H259.823Z" fill="#231F20"/>
<path d="M299.993 410.115C322.562 410.115 340.858 404.757 340.858 398.149C340.858 391.54 322.562 386.183 299.993 386.183C277.423 386.183 259.127 391.54 259.127 398.149C259.127 404.757 277.423 410.115 299.993 410.115Z" fill="#231F20"/>
<path d="M299.993 410.817C276.694 410.817 258.432 405.249 258.432 398.149C258.432 391.049 276.694 385.465 299.993 385.465C323.291 385.465 341.538 391.033 341.538 398.149C341.538 405.265 323.291 410.817 299.993 410.817ZM299.993 386.885C275.952 386.885 259.823 392.708 259.823 398.165C259.823 403.621 275.968 409.429 299.993 409.429C324.017 409.429 340.163 403.605 340.163 398.165C340.163 392.724 324.033 386.869 299.993 386.869V386.885Z" fill="#231F20"/>
<path d="M265.74 372.924V390.475C265.74 397.08 284.033 402.441 306.605 402.441C329.178 402.441 347.486 397.08 347.486 390.475V372.924H265.74Z" fill="white"/>
<path d="M306.574 403.238C286.103 403.238 264.859 398.452 264.859 390.475V372.924C264.859 372.713 264.941 372.51 265.086 372.36C265.23 372.211 265.427 372.127 265.632 372.127H347.378C347.583 372.127 347.779 372.211 347.924 372.36C348.069 372.51 348.15 372.713 348.15 372.924V390.475C348.228 398.452 327.046 403.238 306.574 403.238ZM266.404 373.802V390.475C266.404 395.867 282.519 401.643 306.574 401.643C330.63 401.643 346.744 395.867 346.744 390.475V373.722L266.404 373.802Z" fill="#231F20"/>
<path d="M306.574 384.89C329.144 384.89 347.44 379.533 347.44 372.924C347.44 366.316 329.144 360.958 306.574 360.958C284.005 360.958 265.709 366.316 265.709 372.924C265.709 379.533 284.005 384.89 306.574 384.89Z" fill="#231F20"/>
<path d="M306.574 385.592C283.276 385.592 265.029 380.024 265.029 372.924C265.029 365.824 283.276 360.256 306.574 360.256C329.873 360.256 348.135 365.809 348.135 372.924C348.135 380.04 329.873 385.592 306.574 385.592ZM306.574 361.66C282.534 361.66 266.404 367.484 266.404 372.924C266.404 378.365 282.55 384.188 306.574 384.188C330.599 384.188 346.744 378.365 346.744 372.924C346.744 367.484 330.63 361.66 306.574 361.66Z" fill="#231F20"/>
<path d="M259.112 347.604V365.154C259.112 371.76 277.42 377.12 299.993 377.12C322.565 377.12 340.858 371.76 340.858 365.154V347.604H259.112Z" fill="white"/>
<path d="M299.993 377.838C279.521 377.838 258.278 373.052 258.278 365.075V347.524C258.282 347.314 258.364 347.114 258.508 346.965C258.652 346.816 258.847 346.731 259.05 346.727H340.796C341.001 346.727 341.197 346.811 341.342 346.96C341.487 347.11 341.569 347.313 341.569 347.524V365.075C341.63 373.068 320.464 377.838 299.993 377.838ZM259.823 348.402V365.075C259.823 370.467 275.937 376.243 299.993 376.243C324.048 376.243 340.163 370.467 340.163 365.075V348.402H259.823Z" fill="#231F20"/>
<path d="M299.993 359.57C322.562 359.57 340.858 354.213 340.858 347.604C340.858 340.996 322.562 335.638 299.993 335.638C277.423 335.638 259.127 340.996 259.127 347.604C259.127 354.213 277.423 359.57 299.993 359.57Z" fill="#231F20"/>
<path d="M299.993 360.288C276.694 360.288 258.432 354.72 258.432 347.524C258.432 340.329 276.694 334.856 299.993 334.856C323.291 334.856 341.538 340.425 341.538 347.524C341.538 354.624 323.291 360.288 299.993 360.288ZM299.993 336.356C275.952 336.356 259.823 342.18 259.823 347.62C259.823 353.061 275.968 358.884 299.993 358.884C324.017 358.884 340.163 353.061 340.163 347.62C340.163 342.18 324.033 336.34 299.993 336.34V336.356Z" fill="#231F20"/>
<path d="M272.291 326.911V344.365C272.291 350.987 290.599 356.347 313.171 356.347C335.744 356.347 354.037 350.987 354.037 344.365V326.911H272.291Z" fill="white"/>
<path d="M313.171 357.145C292.7 357.145 271.456 352.359 271.456 344.381V326.911C271.456 326.699 271.538 326.496 271.683 326.347C271.828 326.197 272.024 326.113 272.229 326.113H353.975C354.18 326.113 354.376 326.197 354.521 326.347C354.666 326.496 354.747 326.699 354.747 326.911V344.365C354.809 352.359 333.72 357.145 313.171 357.145ZM273.001 327.709V344.365C273.001 349.758 289.116 355.534 313.171 355.534C337.227 355.534 353.341 349.742 353.341 344.365V327.709H273.001Z" fill="#231F20"/>
<path d="M313.171 338.877C335.741 338.877 354.037 333.52 354.037 326.911C354.037 320.302 335.741 314.945 313.171 314.945C290.602 314.945 272.306 320.302 272.306 326.911C272.306 333.52 290.602 338.877 313.171 338.877Z" fill="#231F20"/>
<path d="M313.171 339.579C289.857 339.579 271.611 334.011 271.611 326.911C271.611 319.811 289.857 314.227 313.171 314.227C336.486 314.227 354.717 319.795 354.717 326.911C354.717 334.027 336.47 339.579 313.171 339.579ZM313.171 315.647C289.116 315.647 273.001 321.486 273.001 326.927C273.001 332.367 289.147 338.191 313.171 338.191C337.196 338.191 353.341 332.367 353.341 326.927C353.341 321.486 337.212 315.631 313.171 315.631V315.647Z" fill="#231F20"/>
<path d="M263.33 306.202V323.672C263.33 330.277 281.623 335.638 304.195 335.638C326.767 335.638 345.076 330.277 345.076 323.672V306.202H263.33Z" fill="white"/>
<path d="M304.195 336.436C283.724 336.436 262.557 331.649 262.557 323.672V306.202C262.557 305.99 262.639 305.787 262.784 305.638C262.928 305.488 263.125 305.404 263.33 305.404H345.076C345.281 305.404 345.477 305.488 345.622 305.638C345.767 305.787 345.848 305.99 345.848 306.202V323.672C345.848 331.665 324.666 336.436 304.195 336.436ZM264.102 306.999V323.672C264.102 329.065 280.217 334.84 304.195 334.84C328.173 334.84 344.365 329.065 344.365 323.672V306.999H264.102Z" fill="#231F20"/>
<path d="M304.195 318.168C326.764 318.168 345.06 312.81 345.06 306.202C345.06 299.593 326.764 294.236 304.195 294.236C281.626 294.236 263.33 299.593 263.33 306.202C263.33 312.81 281.626 318.168 304.195 318.168Z" fill="white"/>
<path d="M304.195 318.965C283.724 318.965 262.557 314.179 262.557 306.202C262.557 298.224 283.724 293.438 304.195 293.438C324.666 293.438 345.91 298.224 345.91 306.202C345.91 314.179 324.666 318.965 304.195 318.965ZM304.195 295.033C280.217 295.033 264.102 300.809 264.102 306.202C264.102 311.594 280.217 317.37 304.195 317.37C328.173 317.37 344.365 311.594 344.365 306.202C344.365 300.809 328.189 295.033 304.195 295.033Z" fill="#231F20"/>
<path d="M304.195 314.259C286.783 314.259 269.139 311.499 269.139 306.281C269.139 301.064 286.783 298.224 304.195 298.224C321.607 298.224 339.251 300.984 339.251 306.281C339.251 311.578 321.623 314.259 304.195 314.259ZM304.195 299.74C283.43 299.74 270.684 303.505 270.684 306.202C270.684 308.898 283.43 312.583 304.195 312.583C324.96 312.583 337.706 308.818 337.706 306.202C337.706 303.585 324.96 299.74 304.195 299.74Z" fill="#D1D3D4"/>
<path d="M464.489 388.528V405.998C464.489 412.604 446.196 417.965 423.624 417.965C401.051 417.965 382.743 412.604 382.743 405.998V388.528H464.489Z" fill="white"/>
<path d="M423.624 418.762C403.152 418.762 381.909 413.976 381.909 405.999V388.528C381.909 388.316 381.99 388.114 382.135 387.964C382.28 387.814 382.476 387.73 382.681 387.73H464.427C464.632 387.73 464.828 387.814 464.973 387.964C465.118 388.114 465.2 388.316 465.2 388.528V405.999C465.261 413.976 444.095 418.762 423.624 418.762ZM383.454 389.326V405.999C383.454 411.391 399.568 417.167 423.624 417.167C447.679 417.167 463.716 411.391 463.716 405.999V389.326H383.454Z" fill="#231F20"/>
<path d="M423.624 400.494C446.193 400.494 464.489 395.137 464.489 388.528C464.489 381.919 446.193 376.562 423.624 376.562C401.054 376.562 382.758 381.919 382.758 388.528C382.758 395.137 401.054 400.494 423.624 400.494Z" fill="#231F20"/>
<path d="M423.624 401.196C400.325 401.196 382.063 395.628 382.063 388.528C382.063 381.428 400.325 375.844 423.624 375.844C446.922 375.844 465.169 381.412 465.169 388.528C465.169 395.644 446.922 401.196 423.624 401.196ZM423.624 377.264C399.583 377.264 383.454 383.087 383.454 388.528C383.454 393.969 399.614 399.792 423.624 399.792C447.633 399.792 463.794 393.969 463.794 388.528C463.794 383.087 447.664 377.264 423.624 377.264Z" fill="#231F20"/>
<path d="M451.325 367.819V385.289C451.325 391.895 433.017 397.255 410.445 397.255C387.872 397.255 369.579 391.895 369.579 385.289V367.819H451.325Z" fill="white"/>
<path d="M410.445 398.053C389.973 398.053 368.73 393.267 368.73 385.289V367.819C368.73 367.607 368.811 367.404 368.956 367.255C369.101 367.105 369.297 367.021 369.502 367.021H451.248C451.453 367.021 451.65 367.105 451.794 367.255C451.939 367.404 452.021 367.607 452.021 367.819V385.289C452.098 393.283 430.916 398.053 410.445 398.053ZM370.275 368.617V385.289C370.275 390.682 386.389 396.458 410.445 396.458C434.5 396.458 450.615 390.682 450.615 385.289V368.617H370.275Z" fill="#231F20"/>
<path d="M410.445 379.785C433.014 379.785 451.31 374.427 451.31 367.819C451.31 361.21 433.014 355.853 410.445 355.853C387.875 355.853 369.579 361.21 369.579 367.819C369.579 374.427 387.875 379.785 410.445 379.785Z" fill="#231F20"/>
<path d="M410.445 380.503C387.146 380.503 368.9 374.935 368.9 367.819C368.9 360.703 387.146 355.151 410.445 355.151C433.743 355.151 452.005 360.719 452.005 367.819C452.005 374.919 433.743 380.503 410.445 380.503ZM410.445 356.571C386.404 356.571 370.275 362.394 370.275 367.835C370.275 373.275 386.42 379.099 410.445 379.099C434.469 379.099 450.615 373.275 450.615 367.835C450.615 362.394 434.485 356.555 410.445 356.555V356.571Z" fill="#231F20"/>
<path d="M460.286 347.11V364.66C460.286 371.281 441.994 376.642 419.421 376.642C396.849 376.642 378.525 371.201 378.525 364.58V347.03L460.286 347.11Z" fill="white"/>
<path d="M419.406 377.344C398.95 377.344 377.768 372.557 377.768 364.58V347.03C377.768 346.818 377.849 346.615 377.994 346.466C378.139 346.316 378.336 346.232 378.54 346.232H460.286C460.491 346.232 460.688 346.316 460.833 346.466C460.978 346.615 461.059 346.818 461.059 347.03V364.58C461.059 372.573 439.877 377.344 419.406 377.344ZM379.313 347.907V364.58C379.313 369.973 395.427 375.748 419.406 375.748C443.384 375.748 459.576 369.973 459.576 364.58V347.907H379.313Z" fill="#231F20"/>
<path d="M419.421 359.076C441.99 359.076 460.286 353.718 460.286 347.11C460.286 340.501 441.99 335.144 419.421 335.144C396.852 335.144 378.556 340.501 378.556 347.11C378.556 353.718 396.852 359.076 419.421 359.076Z" fill="#231F20"/>
<path d="M419.406 359.794C396.107 359.794 377.861 354.225 377.861 347.03C377.861 339.834 396.107 334.362 419.406 334.362C442.704 334.362 460.966 339.93 460.966 347.03C460.966 354.13 442.72 359.794 419.406 359.794ZM419.406 335.862C395.365 335.862 379.236 341.685 379.236 347.126C379.236 352.566 395.381 358.406 419.406 358.406C443.43 358.406 459.576 352.582 459.576 347.126C459.576 341.669 443.415 335.846 419.406 335.846V335.862Z" fill="#231F20"/>
<path d="M461.723 323.672V341.127C461.723 347.748 443.43 353.109 420.858 353.109C398.286 353.109 379.977 347.748 379.977 341.127V323.672H461.723Z" fill="white"/>
<path d="M420.858 353.906C400.387 353.906 379.143 349.12 379.143 341.142V323.672C379.143 323.46 379.224 323.258 379.369 323.108C379.514 322.958 379.711 322.874 379.916 322.874H461.661C461.866 322.874 462.063 322.958 462.208 323.108C462.353 323.258 462.434 323.46 462.434 323.672V341.127C462.496 349.12 441.314 353.906 420.858 353.906ZM380.688 324.47V341.127C380.688 346.535 396.802 352.295 420.858 352.295C444.914 352.295 461.028 346.519 461.028 341.127V324.47H380.688Z" fill="#231F20"/>
<path d="M420.858 335.638C443.427 335.638 461.723 330.281 461.723 323.672C461.723 317.063 443.427 311.706 420.858 311.706C398.289 311.706 379.993 317.063 379.993 323.672C379.993 330.281 398.289 335.638 420.858 335.638Z" fill="#231F20"/>
<path d="M420.858 336.34C397.544 336.34 379.297 330.772 379.297 323.672C379.297 316.572 397.544 310.988 420.858 310.988C444.172 310.988 462.403 316.556 462.403 323.672C462.403 330.788 444.157 336.34 420.858 336.34ZM420.858 312.408C396.802 312.408 380.688 318.247 380.688 323.688C380.688 329.129 396.833 334.952 420.858 334.952C444.883 334.952 461.028 329.129 461.028 323.688C461.028 318.247 444.96 312.392 420.858 312.392V312.408Z" fill="#231F20"/>
<path d="M453.705 300.809V318.263C453.705 324.885 435.396 330.245 412.824 330.245C390.252 330.245 371.959 324.885 371.959 318.263V300.809H453.705Z" fill="white"/>
<path d="M412.824 331.043C392.353 331.043 371.186 326.257 371.186 318.279V300.809C371.186 300.597 371.268 300.394 371.413 300.245C371.557 300.095 371.754 300.011 371.959 300.011H453.705C453.91 300.011 454.106 300.095 454.251 300.245C454.396 300.394 454.477 300.597 454.477 300.809V318.263C454.477 326.257 433.295 331.043 412.824 331.043ZM372.731 301.607V318.263C372.731 323.672 388.846 329.432 412.824 329.432C436.802 329.432 452.994 323.656 452.994 318.263V301.607H372.731Z" fill="#231F20"/>
<path d="M412.824 312.775C435.393 312.775 453.689 307.418 453.689 300.809C453.689 294.2 435.393 288.843 412.824 288.843C390.255 288.843 371.959 294.2 371.959 300.809C371.959 307.418 390.255 312.775 412.824 312.775Z" fill="#231F20"/>
<path d="M412.824 313.477C389.525 313.477 371.279 307.909 371.279 300.809C371.279 293.709 389.525 288.045 412.824 288.045C436.123 288.045 454.384 293.613 454.384 300.809C454.384 308.005 436.123 313.477 412.824 313.477ZM412.824 289.545C388.784 289.545 372.654 295.384 372.654 300.825C372.654 306.265 388.799 312.089 412.824 312.089C436.849 312.089 452.994 306.265 452.994 300.825C452.994 295.384 436.864 289.529 412.824 289.529V289.545Z" fill="#231F20"/>
<path d="M464.489 277.355V294.746C464.489 301.367 446.196 306.728 423.624 306.728C401.051 306.728 382.743 301.367 382.743 294.746V277.355H464.489Z" fill="white"/>
<path d="M423.624 307.59C403.152 307.59 381.909 302.803 381.909 294.826V277.355C381.909 277.144 381.99 276.941 382.135 276.791C382.28 276.642 382.476 276.558 382.681 276.558H464.427C464.632 276.558 464.828 276.642 464.973 276.791C465.118 276.941 465.2 277.144 465.2 277.355V294.746C465.261 302.803 444.095 307.59 423.624 307.59ZM383.454 278.153V294.746C383.454 300.155 399.568 305.914 423.624 305.914C447.679 305.914 463.716 300.139 463.716 294.746V278.153H383.454Z" fill="#231F20"/>
<path d="M423.624 289.322C446.193 289.322 464.489 283.964 464.489 277.355C464.489 270.747 446.193 265.389 423.624 265.389C401.054 265.389 382.758 270.747 382.758 277.355C382.758 283.964 401.054 289.322 423.624 289.322Z" fill="white"/>
<path d="M423.624 290.119C403.152 290.119 381.909 285.333 381.909 277.355C381.909 269.378 403.091 264.592 423.624 264.592C444.157 264.592 465.261 269.378 465.261 277.355C465.261 285.333 444.095 290.119 423.624 290.119ZM423.624 266.187C399.63 266.187 383.454 271.979 383.454 277.355C383.454 282.732 399.568 288.524 423.624 288.524C447.679 288.524 463.716 282.748 463.716 277.355C463.716 271.963 447.602 266.171 423.624 266.171V266.187Z" fill="#231F20"/>
<path d="M423.624 285.413C406.196 285.413 388.568 282.636 388.568 277.355C388.568 272.074 406.196 269.378 423.624 269.378C441.051 269.378 458.68 272.138 458.68 277.355C458.68 282.573 441.036 285.413 423.624 285.413ZM423.624 270.894C402.859 270.894 390.113 274.659 390.113 277.276C390.113 279.892 402.859 283.737 423.624 283.737C444.388 283.737 457.135 279.972 457.135 277.276C457.135 274.579 444.388 270.894 423.624 270.894Z" fill="#D1D3D4"/>
<path d="M232.044 220.253C232.044 220.253 227.161 214.813 226.852 212.85C226.543 210.888 226.173 204.091 224.566 205.288C222.959 206.485 223.345 211.351 223.345 211.351C223.345 211.351 216.686 203.118 214.724 204.969C212.762 206.82 211.959 208.463 211.835 212.053C211.711 215.643 228.459 230.688 228.459 230.688" fill="white"/>
<path d="M228.459 231.406C228.272 231.408 228.091 231.34 227.949 231.214C225.106 228.662 210.954 215.722 211.062 211.941C210.971 210.505 211.202 209.066 211.738 207.738C212.274 206.409 213.101 205.227 214.152 204.283C214.345 204.12 214.567 203.998 214.806 203.924C215.045 203.85 215.295 203.825 215.543 203.852C217.551 204.012 220.626 207.123 222.48 209.197C222.557 207.601 222.897 205.495 224.025 204.634C224.208 204.485 224.427 204.391 224.658 204.36C224.889 204.329 225.124 204.363 225.338 204.458C226.466 204.969 226.883 207.075 227.378 211.319C227.378 211.893 227.486 212.388 227.548 212.723C227.733 213.919 230.638 217.509 232.538 219.711C232.68 219.863 232.76 220.066 232.76 220.277C232.76 220.489 232.68 220.692 232.538 220.844C232.466 220.919 232.381 220.978 232.287 221.018C232.192 221.059 232.091 221.08 231.989 221.08C231.887 221.08 231.787 221.059 231.692 221.018C231.598 220.978 231.513 220.919 231.441 220.844C230.607 219.902 226.389 215.116 226.064 213.026C226.064 212.675 225.956 212.148 225.879 211.558C225.757 209.703 225.414 207.87 224.859 206.102C224.102 206.947 223.948 209.596 224.071 211.335C224.09 211.502 224.054 211.67 223.97 211.815C223.887 211.959 223.759 212.07 223.608 212.132C223.456 212.202 223.285 212.218 223.123 212.178C222.961 212.138 222.816 212.043 222.712 211.909C220.765 209.5 217.057 205.623 215.45 205.527C215.265 205.527 215.234 205.527 215.203 205.527C213.334 207.218 212.685 208.798 212.577 212.037C212.499 214.047 220.827 222.758 228.938 230.05C229.01 230.122 229.067 230.209 229.106 230.305C229.145 230.401 229.165 230.504 229.165 230.608C229.165 230.712 229.145 230.815 229.106 230.911C229.067 231.007 229.01 231.094 228.938 231.166C228.815 231.309 228.643 231.395 228.459 231.406Z" fill="#231F20"/>
<path d="M222.882 219.089C222.731 219.091 222.582 219.047 222.455 218.962C222.329 218.877 222.23 218.754 222.171 218.61C221.629 217.379 221.394 216.027 221.489 214.678C221.583 213.329 222.004 212.026 222.712 210.888C222.835 210.72 223.015 210.607 223.216 210.572C223.417 210.536 223.623 210.581 223.793 210.697C223.956 210.824 224.065 211.011 224.097 211.22C224.128 211.428 224.081 211.641 223.963 211.813C223.414 212.725 223.092 213.763 223.025 214.835C222.957 215.906 223.147 216.978 223.577 217.956C223.621 218.051 223.645 218.154 223.649 218.259C223.653 218.364 223.637 218.469 223.601 218.567C223.565 218.666 223.51 218.755 223.439 218.831C223.369 218.907 223.284 218.968 223.191 219.009C223.094 219.056 222.989 219.083 222.882 219.089Z" fill="#231F20"/>
<path d="M310.545 379.067C310.42 381.107 310.42 383.153 310.545 385.194C310.792 385.975 312.306 389.868 312.09 391.049C311.874 392.23 299.266 412.891 296.115 409.62C292.963 406.349 301.028 391.272 301.028 389.709C301.028 388.145 300.024 379.035 300.024 379.035L310.545 379.067Z" fill="white"/>
<path d="M296.949 410.785C296.694 410.789 296.441 410.741 296.205 410.642C295.969 410.543 295.754 410.397 295.574 410.211C293.117 407.674 295.744 400.749 298.88 393.267C299.416 392.119 299.875 390.936 300.255 389.725C300.255 388.544 299.606 382.306 299.251 379.163C299.24 379.051 299.252 378.937 299.286 378.83C299.32 378.723 299.375 378.625 299.447 378.541C299.52 378.457 299.609 378.389 299.708 378.343C299.807 378.296 299.915 378.271 300.024 378.269H310.545C310.65 378.269 310.754 378.291 310.85 378.335C310.946 378.379 311.031 378.444 311.101 378.524C311.177 378.601 311.235 378.693 311.272 378.795C311.31 378.897 311.325 379.006 311.318 379.115C311.183 381.053 311.183 383 311.318 384.938C311.318 385.05 311.426 385.257 311.503 385.513C312.461 388.209 313.048 390.203 312.847 391.208C312.523 392.676 302.449 409.237 297.66 410.673C297.429 410.742 297.19 410.78 296.949 410.785ZM300.889 379.865C301.151 382.226 301.8 388.432 301.8 389.741C301.472 391.195 300.952 392.596 300.255 393.905C298.463 398.197 294.709 407.115 296.625 409.078C296.625 409.078 296.779 409.237 297.119 409.158C301.028 408.232 310.869 392.198 311.333 390.826C311.143 389.172 310.711 387.558 310.051 386.039C309.964 385.838 309.891 385.63 309.834 385.417C309.667 383.565 309.667 381.701 309.834 379.849L300.889 379.865Z" fill="#231F20"/>
<path d="M282.735 380.471C282.735 380.471 282.225 389.182 282.735 391.129C283.245 393.075 284.125 395.293 283.863 396.474C283.6 397.654 268.119 411.694 267.362 409.237C266.605 406.78 272.909 396.777 273.032 395.006C273.156 393.235 271.024 379.577 271.024 379.577L282.735 380.471Z" fill="white"/>
<path d="M267.857 410.306C267.595 410.322 267.337 410.248 267.121 410.095C266.905 409.941 266.746 409.718 266.667 409.461C266.142 407.753 267.826 404.196 270.267 399.377C271.063 397.956 271.74 396.466 272.291 394.926C272.383 393.697 271.147 385.146 270.282 379.689C270.267 379.569 270.278 379.447 270.312 379.332C270.347 379.216 270.405 379.109 270.483 379.019C270.562 378.932 270.658 378.865 270.765 378.821C270.871 378.777 270.986 378.757 271.101 378.764L282.828 379.673C283.03 379.689 283.218 379.787 283.351 379.946C283.484 380.104 283.551 380.31 283.538 380.519C283.276 383.986 283.276 387.47 283.538 390.937C283.677 391.448 283.832 391.974 283.986 392.533C284.523 393.842 284.761 395.261 284.682 396.681C284.388 398.053 271.039 410.195 267.965 410.338L267.857 410.306ZM271.92 380.423C272.445 383.774 273.898 393.458 273.789 395.054C273.286 396.84 272.547 398.547 271.596 400.127C270.236 402.792 268.042 407.131 268.042 408.679C270.638 408.073 282.38 397.606 283.137 396.186C283.063 395.092 282.828 394.016 282.441 392.995C282.266 392.453 282.112 391.921 281.978 391.4C281.697 388.029 281.697 384.639 281.978 381.269L271.92 380.423Z" fill="#231F20"/>
<path d="M383.747 226.141C383.747 226.141 388.815 220.892 389.201 218.945C389.587 216.999 390.221 210.218 391.781 211.478C393.342 212.739 392.77 217.589 392.77 217.589C392.77 217.589 399.738 209.612 401.607 211.478C403.477 213.345 404.249 215.084 404.249 218.658C404.249 222.232 386.945 236.623 386.945 236.623" fill="white"/>
<path d="M386.945 237.309C386.83 237.31 386.717 237.285 386.613 237.236C386.508 237.186 386.416 237.113 386.343 237.022C386.214 236.856 386.153 236.644 386.173 236.433C386.193 236.221 386.293 236.026 386.451 235.889C394.825 228.949 403.446 220.557 403.446 218.546C403.446 215.355 402.859 213.76 401.051 211.941C401.051 211.941 401.051 211.941 400.819 211.941C399.197 211.941 395.366 215.738 393.311 218.068C393.202 218.196 393.056 218.284 392.894 218.319C392.732 218.354 392.564 218.333 392.415 218.259C392.268 218.188 392.146 218.071 392.066 217.925C391.986 217.78 391.951 217.612 391.966 217.445C392.167 215.706 392.121 213.026 391.395 212.18C390.774 213.926 390.359 215.741 390.159 217.589C390.066 218.195 389.989 218.706 389.927 219.057C389.525 221.131 385.138 225.742 384.257 226.651C384.185 226.726 384.1 226.785 384.006 226.826C383.911 226.866 383.81 226.887 383.708 226.887C383.606 226.887 383.505 226.866 383.411 226.826C383.317 226.785 383.232 226.726 383.16 226.651C383.017 226.499 382.938 226.296 382.938 226.085C382.938 225.873 383.017 225.67 383.16 225.519C385.199 223.412 388.181 219.918 388.413 218.738C388.413 218.403 388.552 217.924 388.629 217.35C389.278 213.122 389.773 210.968 390.916 210.569C391.133 210.477 391.371 210.449 391.603 210.488C391.835 210.528 392.052 210.633 392.229 210.792C393.342 211.702 393.604 213.776 393.62 215.419C395.551 213.425 398.749 210.425 400.758 210.346C401.005 210.325 401.254 210.359 401.488 210.444C401.722 210.529 401.937 210.664 402.117 210.84C403.145 211.818 403.94 213.028 404.438 214.376C404.937 215.724 405.126 217.174 404.991 218.61C404.991 222.391 390.329 234.756 387.393 237.197C387.261 237.286 387.103 237.326 386.945 237.309Z" fill="#231F20"/>
<path d="M290.244 281.791L339.684 284.455C339.684 284.455 342.774 298.432 334.307 305.372C325.84 312.312 308.784 319.492 307.764 324.518C306.744 329.543 312.878 373.531 312.214 383.933L297.026 387.651C297.026 387.651 283.925 335.144 284.249 326.48C284.574 317.817 288.961 313.716 288.961 313.716C288.961 313.716 276.864 324.422 276.524 326.847C276.184 329.272 285.207 384.986 285.207 384.986C285.207 384.986 269.17 385.64 268.845 384.587C268.521 383.534 253.689 332.064 257.382 320.96C261.074 309.855 290.244 281.791 290.244 281.791Z" fill="#231F20"/>
<path d="M296.964 388.416C296.813 388.418 296.665 388.367 296.544 388.271C296.424 388.176 296.338 388.042 296.3 387.89C295.775 385.752 283.183 335.239 283.507 326.512C283.6 323.522 284.256 320.58 285.439 317.849C281.035 321.981 277.281 325.938 277.142 326.991C276.941 328.873 282.225 362.649 285.825 384.89C285.839 384.992 285.832 385.095 285.805 385.194C285.779 385.293 285.733 385.385 285.67 385.465C285.543 385.611 285.366 385.702 285.176 385.72C268.629 386.39 268.305 385.385 268.181 384.843C268.057 384.3 252.886 332.192 256.717 320.752C260.425 309.584 288.621 282.461 289.827 281.264C289.893 281.201 289.971 281.153 290.056 281.123C290.141 281.093 290.231 281.081 290.321 281.089L339.761 283.753C339.91 283.766 340.051 283.826 340.165 283.927C340.279 284.027 340.359 284.162 340.394 284.312C340.518 284.902 343.407 298.799 334.786 305.93C330.743 309.008 326.494 311.786 322.071 314.243C315.659 318.04 309.031 321.965 308.49 324.709C308.011 327.07 309.263 339.228 310.468 350.971C311.843 364.564 313.28 378.62 312.94 384.045C312.93 384.195 312.874 384.339 312.779 384.454C312.685 384.569 312.557 384.649 312.414 384.683L297.227 388.4L296.964 388.416ZM288.915 313.046C289.012 313.046 289.107 313.068 289.195 313.109C289.283 313.15 289.361 313.211 289.425 313.286C289.548 313.419 289.616 313.596 289.616 313.78C289.616 313.964 289.548 314.141 289.425 314.275C289.425 314.275 285.253 318.327 284.929 326.56C284.635 334.537 296.007 380.806 297.521 386.869L311.549 383.438C311.781 377.743 310.344 363.623 309.062 351.114C307.733 338.175 306.59 327.007 307.1 324.438C307.779 321.055 314.068 317.338 321.36 313.014C325.717 310.592 329.904 307.857 333.89 304.83C340.966 298.974 339.545 287.694 339.112 285.141L290.46 282.509C287.818 285.062 261.368 310.892 257.938 321.215C254.415 331.777 268.243 380.471 269.324 384.188C270.653 384.587 277.698 384.587 284.311 384.348C282.951 375.86 275.427 329.16 275.767 326.783C276.107 324.406 286.366 315.041 288.421 313.222C288.558 313.1 288.735 313.038 288.915 313.046Z" fill="#231F20"/>
<path d="M341.878 285.732C341.878 285.732 338.942 263.65 336.161 252.227C336.161 252.227 344.38 267.033 354.207 267.862C364.033 268.692 392.971 234.262 392.971 234.262L384.875 222.391C384.875 222.391 364.62 238.905 352.94 244.122C349.85 236.83 331.974 210.617 321.654 205.368C311.333 200.119 298.139 204.251 291.078 210.154C287.664 213.058 278.718 218.371 263.268 233.033C252.139 228.972 241.609 223.334 231.982 216.281L224.025 227.912C224.025 227.912 256.47 258.864 265.385 254.253L286.026 243.547L284.929 285.253L341.878 285.732Z" fill="#AA68FC"/>
<path d="M299.915 171.671C299.915 171.671 291.542 196.417 287.803 201.586L309.541 209.995L313.62 170.108L299.915 171.671Z" fill="white"/>
<path d="M309.541 210.792C309.449 210.807 309.355 210.807 309.263 210.792L287.525 202.384C287.414 202.337 287.315 202.266 287.235 202.175C287.155 202.084 287.096 201.975 287.061 201.858C287.022 201.739 287.013 201.613 287.035 201.49C287.056 201.367 287.108 201.252 287.185 201.156C290.8 196.146 299.097 171.703 299.189 171.448C299.235 171.307 299.32 171.183 299.432 171.089C299.544 170.996 299.68 170.938 299.823 170.921L313.542 169.326C313.657 169.311 313.774 169.323 313.884 169.361C313.994 169.4 314.094 169.464 314.176 169.549C314.257 169.635 314.319 169.738 314.356 169.851C314.394 169.964 314.406 170.085 314.392 170.203L310.298 210.09C310.289 210.211 310.252 210.328 310.19 210.431C310.128 210.533 310.043 210.619 309.942 210.681C309.821 210.755 309.682 210.794 309.541 210.792ZM288.992 201.219L308.876 208.91L312.754 171.001L300.487 172.437C299.328 175.788 292.669 195.077 288.992 201.188V201.219Z" fill="#231F20"/>
<path d="M304.149 201.969L301.692 213.026C301.692 213.026 300.394 219.966 307.548 219.328C309.659 219.118 311.699 218.424 313.519 217.298C315.339 216.172 316.893 214.642 318.069 212.819L320.943 192.716C321.066 191.87 322.241 183.558 323.708 176.266C315.489 174.511 308.258 172.357 308.258 172.357C308.923 173.347 305.956 172.9 305.956 172.916C304.64 172.638 303.288 172.584 301.955 172.756C300.58 177.543 298.34 182.68 297.552 187.562C297.037 190.484 296.784 193.448 296.795 196.417C296.887 202.049 304.149 201.969 304.149 201.969Z" fill="white"/>
<path d="M306.652 220.094C305.838 220.152 305.023 220.027 304.26 219.73C303.498 219.433 302.806 218.969 302.233 218.371C301.67 217.598 301.269 216.711 301.056 215.769C300.843 214.827 300.823 213.849 300.997 212.898L303.268 202.671C300.41 202.448 296.161 200.964 296.084 196.417C296.063 193.41 296.317 190.408 296.841 187.451C297.478 184.141 298.393 180.895 299.576 177.75C300.163 176.027 300.765 174.256 301.26 172.549C301.297 172.416 301.371 172.297 301.472 172.206C301.574 172.116 301.698 172.057 301.831 172.038C303.241 171.856 304.669 171.905 306.065 172.182C306.578 172.235 307.096 172.235 307.61 172.182C307.628 172.067 307.67 171.959 307.733 171.863C307.815 171.744 307.93 171.654 308.062 171.603C308.194 171.551 308.337 171.542 308.475 171.576C308.552 171.576 315.783 173.745 323.925 175.468C324.018 175.483 324.107 175.519 324.185 175.574C324.262 175.63 324.327 175.703 324.373 175.788C324.425 175.866 324.461 175.954 324.48 176.048C324.498 176.141 324.499 176.237 324.481 176.33C323.199 182.712 322.148 189.828 321.746 192.62C321.746 192.62 321.746 192.62 318.842 212.85C318.835 212.943 318.802 213.031 318.749 213.106C317.525 215.037 315.895 216.657 313.979 217.845C312.063 219.033 309.912 219.758 307.687 219.966L306.652 220.094ZM302.372 213.201C302.25 213.929 302.269 214.675 302.428 215.395C302.587 216.116 302.883 216.796 303.299 217.398C303.856 217.924 304.526 218.306 305.253 218.514C305.981 218.722 306.746 218.75 307.486 218.594C309.462 218.393 311.372 217.749 313.082 216.707C314.792 215.666 316.262 214.252 317.389 212.563C317.667 210.713 320.217 192.811 320.248 192.62C320.649 189.78 321.654 183.047 322.874 176.825C316.509 175.453 310.792 173.857 308.799 173.283C308.552 173.554 307.934 173.921 305.848 173.634C304.74 173.402 303.607 173.332 302.48 173.426C302.001 175.022 301.445 176.617 300.935 178.213C299.761 181.286 298.841 184.456 298.185 187.69C297.674 190.563 297.426 193.48 297.443 196.401C297.536 201.188 303.824 201.188 304.102 201.188C304.209 201.183 304.316 201.205 304.413 201.253C304.51 201.3 304.594 201.371 304.659 201.459C304.724 201.546 304.769 201.647 304.791 201.755C304.812 201.863 304.809 201.974 304.782 202.081L302.326 213.138L302.372 213.201Z" fill="#231F20"/>
<path d="M308.197 184.818C308.197 184.818 303.562 189.604 304.272 190.785C304.983 191.966 307.455 191.742 307.455 191.742" fill="white"/>
<path d="M307.038 192.636C306.126 192.636 304.334 192.476 303.623 191.28C302.913 190.083 304.319 187.849 307.64 184.339C307.711 184.264 307.796 184.204 307.89 184.162C307.983 184.12 308.084 184.098 308.186 184.097C308.288 184.095 308.389 184.115 308.483 184.153C308.578 184.192 308.664 184.25 308.737 184.323C308.81 184.397 308.869 184.484 308.909 184.581C308.949 184.677 308.971 184.781 308.972 184.886C308.974 184.992 308.955 185.096 308.917 185.194C308.88 185.292 308.824 185.381 308.753 185.456C307.195 186.903 305.917 188.641 304.983 190.578C305.215 190.913 306.528 191.072 307.409 191.024C307.61 191.015 307.807 191.086 307.96 191.223C308.112 191.359 308.208 191.551 308.228 191.758C308.236 191.864 308.224 191.971 308.192 192.072C308.159 192.173 308.108 192.267 308.04 192.347C307.973 192.427 307.89 192.493 307.798 192.54C307.705 192.587 307.604 192.614 307.501 192.62L307.038 192.636Z" fill="#231F20"/>
<path d="M304.777 182.883C304.923 182.23 304.764 181.635 304.423 181.555C304.082 181.474 303.688 181.937 303.543 182.59C303.397 183.242 303.556 183.837 303.897 183.918C304.238 183.999 304.632 183.535 304.777 182.883Z" fill="#231F20"/>
<path d="M313.533 185.439C313.678 184.786 313.519 184.191 313.178 184.111C312.837 184.03 312.443 184.493 312.298 185.146C312.153 185.799 312.311 186.393 312.652 186.474C312.993 186.555 313.387 186.091 313.533 185.439Z" fill="#231F20"/>
<path d="M306.157 179.872L307.316 177.575L308.135 180.287L315.041 182.409L316.957 179.457L316.756 183.446L320.387 183.829C320.387 183.829 313.542 201.379 313.805 212.388C313.805 212.388 334.323 218.243 339.637 214.462C339.637 214.462 333.813 192.779 334.075 184.148C334.338 175.516 333.844 168.097 323.863 164.109C313.882 160.12 306.682 161.38 301.445 166.087C299.89 167.552 298.641 169.329 297.775 171.31C296.909 173.291 296.444 175.433 296.408 177.606C296.408 177.606 304.071 179.728 306.157 179.872Z" fill="white"/>
<path d="M333.488 216.568C325.47 216.568 314.222 213.377 313.604 213.217C313.439 213.18 313.292 213.085 313.188 212.948C313.084 212.812 313.029 212.642 313.032 212.468C312.801 202.895 317.853 188.535 319.212 184.579L316.586 184.307C316.391 184.287 316.21 184.189 316.084 184.035C315.957 183.88 315.893 183.68 315.906 183.478V182.361L315.551 182.919C315.461 183.06 315.33 183.167 315.177 183.224C315.024 183.282 314.857 183.287 314.701 183.238L307.795 181.116C307.673 181.079 307.561 181.012 307.469 180.92C307.378 180.828 307.309 180.715 307.27 180.59L307.007 179.728L306.713 180.303C306.645 180.446 306.536 180.564 306.4 180.641C306.265 180.718 306.11 180.75 305.956 180.734C303.84 180.526 296.393 178.484 296.084 178.388C295.922 178.346 295.778 178.249 295.674 178.114C295.571 177.978 295.514 177.811 295.512 177.638C295.536 175.345 296.021 173.082 296.936 170.992C297.851 168.902 299.176 167.031 300.827 165.497C306.636 160.264 314.438 159.546 324.002 163.375C334.369 167.523 334.987 175.261 334.709 184.116C334.446 192.588 340.194 214.031 340.255 214.238C340.293 214.4 340.284 214.569 340.229 214.725C340.174 214.881 340.076 215.017 339.946 215.116C337.961 216.196 335.729 216.698 333.488 216.568ZM314.562 211.781C320.371 213.377 334.199 216.408 338.741 214.079C337.783 210.473 333.056 192.077 333.303 184.068C333.565 175.468 333.009 168.576 323.585 164.811C314.454 161.157 307.378 161.747 301.955 166.646C299.132 169.312 297.426 173.009 297.196 176.952C298.865 177.399 303.639 178.675 305.725 179.01L306.636 177.208C306.704 177.067 306.811 176.951 306.943 176.874C307.075 176.798 307.227 176.764 307.378 176.777C307.532 176.791 307.678 176.851 307.799 176.951C307.92 177.05 308.01 177.184 308.058 177.335L308.753 179.649L314.716 181.467L316.261 179.01C316.354 178.865 316.491 178.756 316.65 178.698C316.809 178.64 316.982 178.638 317.142 178.691C317.305 178.744 317.446 178.851 317.544 178.995C317.642 179.139 317.691 179.313 317.683 179.489L317.513 182.68L320.418 182.983C320.534 183 320.646 183.043 320.745 183.109C320.843 183.175 320.927 183.263 320.989 183.366C321.046 183.477 321.076 183.6 321.076 183.725C321.076 183.85 321.046 183.973 320.989 184.084C321.036 184.355 314.562 201.156 314.562 211.781Z" fill="#231F20"/>
<path d="M300.503 192.875C300.503 192.875 305.74 199.369 310.916 192.572L300.503 192.875Z" fill="white"/>
<path d="M305.771 196.481C304.645 196.393 303.547 196.074 302.541 195.542C301.536 195.011 300.643 194.278 299.915 193.386C299.836 193.308 299.774 193.215 299.732 193.111C299.691 193.007 299.671 192.895 299.674 192.783C299.677 192.671 299.703 192.56 299.751 192.459C299.798 192.358 299.865 192.268 299.949 192.196C300.032 192.123 300.129 192.07 300.234 192.039C300.338 192.008 300.448 192 300.556 192.016C300.663 192.032 300.767 192.072 300.859 192.132C300.951 192.192 301.029 192.271 301.09 192.365C302.27 193.78 303.927 194.681 305.725 194.885H305.91C306.809 194.795 307.676 194.495 308.447 194.009C309.218 193.522 309.871 192.862 310.36 192.077C310.487 191.91 310.673 191.802 310.877 191.777C311.081 191.751 311.287 191.811 311.449 191.942C311.611 192.073 311.715 192.265 311.74 192.476C311.765 192.687 311.707 192.899 311.58 193.067C310.951 194.042 310.115 194.857 309.135 195.449C308.155 196.04 307.057 196.393 305.925 196.481H305.771Z" fill="#231F20"/>
<path d="M304.149 201.969C304.149 201.969 309.881 201.826 312.322 200.278C312.322 200.278 308.799 208.016 302.264 210.441L304.149 201.969Z" fill="#231F20"/>
<path d="M302.264 211.239C302.077 211.241 301.896 211.173 301.754 211.048C301.648 210.953 301.569 210.83 301.525 210.692C301.482 210.554 301.475 210.407 301.507 210.266L303.392 201.794C303.43 201.621 303.525 201.467 303.659 201.356C303.794 201.246 303.961 201.187 304.133 201.188C304.133 201.188 309.68 201.012 311.858 199.592C312 199.504 312.165 199.466 312.33 199.483C312.494 199.499 312.649 199.57 312.772 199.684C312.895 199.798 312.979 199.95 313.012 200.117C313.045 200.285 313.025 200.458 312.955 200.613C312.816 200.932 309.232 208.591 302.465 211.175C302.401 211.206 302.333 211.227 302.264 211.239ZM304.767 202.751L303.345 209.133C306.321 207.411 308.813 204.921 310.576 201.905C308.671 202.383 306.725 202.666 304.767 202.751Z" fill="#231F20"/>
<path d="M392.971 225.263C392.859 225.293 392.742 225.293 392.631 225.263C392.539 225.217 392.458 225.153 392.39 225.075C392.323 224.996 392.271 224.904 392.238 224.805C392.205 224.706 392.192 224.601 392.198 224.496C392.204 224.391 392.231 224.289 392.275 224.194C392.747 223.235 392.98 222.17 392.953 221.095C392.926 220.02 392.64 218.968 392.121 218.036C392.011 217.858 391.973 217.642 392.017 217.436C392.06 217.229 392.181 217.049 392.353 216.935C392.437 216.876 392.533 216.836 392.633 216.816C392.733 216.797 392.836 216.798 392.935 216.82C393.035 216.843 393.129 216.886 393.212 216.946C393.295 217.007 393.365 217.085 393.419 217.174C394.09 218.334 394.465 219.652 394.508 221.002C394.551 222.353 394.262 223.693 393.666 224.896C393.593 225.017 393.49 225.115 393.368 225.179C393.245 225.244 393.108 225.273 392.971 225.263Z" fill="#231F20"/>
<path d="M339.174 256.343C339.174 256.343 329.904 244.138 324.002 236.559L339.174 256.343Z" fill="white"/>
<path d="M339.174 257.141C339.055 257.143 338.938 257.116 338.831 257.064C338.723 257.011 338.629 256.934 338.556 256.838C338.463 256.726 329.286 244.553 323.399 237.07C323.27 236.905 323.21 236.694 323.232 236.483C323.253 236.272 323.355 236.078 323.515 235.945C323.675 235.812 323.88 235.749 324.084 235.772C324.288 235.794 324.475 235.9 324.605 236.065C330.46 243.563 339.684 255.737 339.776 255.864C339.901 256.032 339.956 256.243 339.93 256.453C339.904 256.662 339.799 256.852 339.637 256.981C339.504 257.086 339.341 257.142 339.174 257.141Z" fill="#231F20"/>
<path d="M285.083 280.897C284.982 280.893 284.882 280.869 284.79 280.825C284.698 280.781 284.615 280.718 284.546 280.641C284.477 280.564 284.424 280.474 284.389 280.376C284.354 280.277 284.338 280.173 284.342 280.068L285.578 229.252C285.578 229.04 285.659 228.837 285.804 228.688C285.949 228.538 286.145 228.454 286.35 228.454C286.555 228.454 286.752 228.538 286.897 228.688C287.041 228.837 287.123 229.04 287.123 229.252L285.887 280.068C285.889 280.177 285.87 280.286 285.83 280.388C285.79 280.489 285.731 280.582 285.656 280.659C285.581 280.737 285.492 280.798 285.393 280.839C285.295 280.88 285.189 280.9 285.083 280.897Z" fill="#231F20"/>
<path d="M378.139 165.082C407.995 165.082 432.198 140.088 432.198 109.256C432.198 78.4247 407.995 53.4307 378.139 53.4307C348.282 53.4307 324.079 78.4247 324.079 109.256C324.079 140.088 348.282 165.082 378.139 165.082Z" fill="#AA68FC"/>
<path d="M396.679 92.5836L403.152 84.5105C400.746 81.7584 397.789 79.5807 394.485 78.1286C390.892 76.5243 386.992 75.7854 383.081 75.9678C379.17 76.1502 375.351 77.2493 371.912 79.1816C364.558 82.947 360.294 89.4246 357.884 97.3381C357.096 99.9068 357.111 99.9068 354.454 99.9228H347.115V107.437H356.215V111.267H347.131V118.813H357.034C360.124 131.386 366.783 140.097 379.637 142.251C384.189 143.182 388.901 142.806 393.26 141.163C397.619 139.52 401.457 136.674 404.357 132.933L397.915 125.083C394.995 128.179 391.905 130.811 387.733 131.465C385.737 131.898 383.677 131.908 381.677 131.493C379.677 131.079 377.78 130.25 376.099 129.056C372.813 126.492 370.497 122.825 369.549 118.686H392.878V111.155H368.56V107.31H392.878V99.8111H369.703C371.433 94.1153 374.446 89.6799 379.931 87.7174C386.42 85.3721 391.936 87.4302 396.679 92.5836Z" fill="white"/>
<path d="M378.139 157.28C368.941 157.28 359.95 154.464 352.302 149.187C344.655 143.91 338.694 136.409 335.174 127.634C331.654 118.859 330.733 109.203 332.528 99.8874C334.322 90.5717 338.751 82.0146 345.255 75.2984C351.759 68.5822 360.045 64.0083 369.066 62.1553C378.087 60.3023 387.438 61.2533 395.935 64.8882C404.433 68.523 411.696 74.6783 416.806 82.5758C421.916 90.4732 424.643 99.7581 424.643 109.256C424.623 121.987 419.717 134.189 411 143.191C402.283 152.193 390.466 157.259 378.139 157.28ZM378.139 62.828C369.247 62.828 360.554 65.551 353.161 70.6526C345.767 75.7542 340.004 83.0053 336.602 91.489C333.199 99.9727 332.308 109.308 334.043 118.314C335.778 127.32 340.06 135.593 346.348 142.086C352.635 148.579 360.646 153.001 369.368 154.793C378.089 156.584 387.129 155.665 395.344 152.15C403.559 148.636 410.581 142.686 415.521 135.051C420.461 127.415 423.098 118.439 423.098 109.256C423.082 96.948 418.34 85.1486 409.912 76.4452C401.484 67.7419 390.058 62.8449 378.139 62.828Z" fill="white"/>
<path d="M239.861 165.082C269.718 165.082 293.921 140.088 293.921 109.256C293.921 78.4247 269.718 53.4307 239.861 53.4307C210.005 53.4307 185.802 78.4247 185.802 109.256C185.802 140.088 210.005 165.082 239.861 165.082Z" fill="#AA68FC"/>
<path d="M234.546 127.062C235.622 124.954 236.275 122.645 236.466 120.27C236.658 117.896 236.383 115.507 235.659 113.245H244.249V105.874C240.865 105.874 237.575 105.746 234.299 105.874C233.64 105.982 232.965 105.842 232.398 105.478C231.831 105.115 231.409 104.553 231.209 103.896C228.521 98.104 229.232 92.2645 233.419 87.9408C237.606 83.6171 244.234 82.7395 248.637 88.3556C250.098 90.3985 251.439 92.5296 252.654 94.7375C253.056 95.4076 253.349 96.1256 253.72 96.8595L262.99 92.6793C261.785 90.4457 260.703 88.2599 259.483 86.1858C257.318 82.1968 254.104 78.9222 250.213 76.7406C242.596 72.7997 235.242 73.757 228.583 78.9104C225.315 81.2652 222.76 84.5272 221.212 88.3191C219.665 92.111 219.188 96.2778 219.838 100.338C220.054 102.125 220.564 103.88 220.981 105.794H214.322V113.181C217.551 113.181 220.688 113.181 223.824 113.181C224.179 113.181 224.751 113.277 224.859 113.516C225.817 115.527 226.883 117.585 226.312 119.898C225.708 122.599 224.483 125.109 222.74 127.217C220.997 129.325 218.788 130.969 216.3 132.008L215.651 132.359L218.942 141.581C219.483 141.373 219.915 141.246 220.302 141.07C222.047 140.24 223.747 139.299 225.524 138.565C229.834 136.794 234.222 136.172 238.641 138.214C239.753 138.725 240.881 139.187 242.009 139.682C248.714 142.634 254.662 140.512 260.549 136.858C259.019 133.603 257.629 130.412 256.223 127.221C255.45 127.7 254.832 128.131 254.183 128.482C251.325 130.077 248.312 131.242 245.083 130.077C241.854 128.913 238.393 127.221 234.546 127.062Z" fill="white"/>
<path d="M239.861 157.28C230.664 157.277 221.675 154.458 214.029 149.179C206.383 143.9 200.425 136.399 196.908 127.623C193.39 118.848 192.472 109.192 194.268 99.8776C196.064 90.5629 200.494 82.0074 206.999 75.2928C213.503 68.5781 221.789 64.0059 230.81 62.1542C239.83 60.3024 249.18 61.2544 257.677 64.8897C266.173 68.525 273.436 74.6803 278.545 82.5774C283.654 90.4745 286.381 99.7588 286.381 109.256C286.365 121.991 281.458 134.198 272.737 143.201C264.016 152.204 252.193 157.267 239.861 157.28ZM239.861 62.828C230.97 62.8312 222.279 65.5568 214.887 70.6604C207.496 75.7639 201.736 83.0161 198.335 91.5C194.935 99.984 194.046 109.319 195.783 118.324C197.519 127.329 201.803 135.6 208.091 142.092C214.379 148.583 222.39 153.004 231.111 154.794C239.832 156.584 248.871 155.663 257.086 152.149C265.3 148.634 272.321 142.684 277.26 135.049C282.2 127.414 284.836 118.438 284.836 109.256C284.824 96.9439 280.081 85.1396 271.649 76.4349C263.217 67.7302 251.784 62.8365 239.861 62.828Z" fill="white"/>
<path d="M141.398 254.253C171.255 254.253 195.458 229.259 195.458 198.427C195.458 167.596 171.255 142.602 141.398 142.602C111.542 142.602 87.3389 167.596 87.3389 198.427C87.3389 229.259 111.542 254.253 141.398 254.253Z" fill="#AA68FC"/>
<path d="M154.871 197.949C152.415 196.579 149.893 195.339 147.316 194.231C147.06 194.155 146.839 193.988 146.69 193.761C146.54 193.534 146.472 193.26 146.497 192.987C146.497 188.408 146.497 183.829 146.497 179.25C146.518 179.051 146.548 178.854 146.59 178.659C149.818 179.716 152.718 181.638 154.994 184.228C157.173 181.627 159.212 179.154 161.298 176.649C157.644 172.416 152.769 169.508 147.393 168.353C146.621 168.177 146.373 167.89 146.404 167.076C146.404 165.481 146.404 163.885 146.404 162.082H138.37V167.746C136.271 168.37 134.208 169.115 132.19 169.98C126.505 172.884 122.92 177.431 122.627 184.228C122.333 191.024 125.454 195.603 130.861 198.826C133.065 200.054 135.329 201.162 137.644 202.145C137.903 202.216 138.128 202.381 138.278 202.609C138.429 202.838 138.494 203.115 138.463 203.389C138.463 207.187 138.463 210.952 138.463 214.733V219.599C134.207 218.738 130.303 216.569 127.262 213.377L120.34 221.195C125.186 226.195 131.566 229.298 138.386 229.97V234.756H146.497V229.667L147.656 229.364C150.1 228.772 152.436 227.781 154.577 226.428C164.759 219.982 165.315 204.378 154.871 197.949ZM138.324 189.971C137.001 189.648 135.816 188.89 134.946 187.811C134.077 186.732 133.571 185.39 133.503 183.988C133.539 182.634 134.046 181.339 134.932 180.34C135.817 179.341 137.021 178.705 138.324 178.548V189.971ZM146.574 218.881C146.574 218.658 146.497 218.435 146.497 218.211V206.293C147.89 206.625 149.131 207.439 150.013 208.6C150.896 209.761 151.367 211.199 151.348 212.675C151.357 214.122 150.889 215.529 150.022 216.665C149.154 217.802 147.939 218.6 146.574 218.929V218.881Z" fill="white"/>
<path d="M141.398 246.451C132.201 246.451 123.21 243.635 115.562 238.358C107.914 233.081 101.954 225.58 98.4339 216.805C94.914 208.03 93.9931 198.374 95.7875 189.058C97.5819 179.743 102.011 171.186 108.515 164.469C115.019 157.753 123.305 153.179 132.326 151.326C141.347 149.473 150.697 150.424 159.195 154.059C167.693 157.694 174.956 163.849 180.065 171.747C185.175 179.644 187.903 188.929 187.903 198.427C187.887 211.159 182.982 223.364 174.264 232.367C165.546 241.369 153.727 246.434 141.398 246.451ZM141.398 151.999C132.506 151.999 123.814 154.722 116.42 159.824C109.027 164.925 103.264 172.176 99.8613 180.66C96.4584 189.144 95.568 198.479 97.3028 207.485C99.0376 216.491 103.32 224.764 109.607 231.257C115.895 237.75 123.906 242.172 132.627 243.964C141.349 245.755 150.388 244.836 158.604 241.321C166.819 237.807 173.841 231.857 178.781 224.222C183.721 216.586 186.358 207.61 186.358 198.427C186.346 186.118 181.605 174.316 173.176 165.612C164.747 156.907 153.319 152.012 141.398 151.999Z" fill="white"/>
<path d="M476.602 254.253C506.458 254.253 530.661 229.259 530.661 198.427C530.661 167.596 506.458 142.602 476.602 142.602C446.745 142.602 422.542 167.596 422.542 198.427C422.542 229.259 446.745 254.253 476.602 254.253Z" fill="#AA68FC"/>
<path d="M501.09 169.645L485.331 199.863H498.309V206.995H483.353V210.569H498.293V217.701H483.322V234.597H469.974V217.828H454.956V210.681H469.896V206.995H454.972V199.895H467.934C462.619 189.732 457.413 179.744 452.129 169.581H458.494C460.858 169.581 463.222 169.581 465.586 169.581C465.85 169.541 466.12 169.604 466.343 169.757C466.565 169.91 466.725 170.143 466.791 170.411C469.881 177.856 472.997 185.259 476.138 192.62C476.262 192.923 476.416 193.194 476.663 193.705C476.941 193.114 477.127 192.763 477.281 192.396C480.433 185.089 483.59 177.787 486.752 170.491C486.922 170.124 487.37 169.629 487.695 169.613C492.098 169.629 496.486 169.645 501.09 169.645Z" fill="white"/>
<path d="M476.602 246.451C467.404 246.451 458.413 243.635 450.765 238.358C443.117 233.081 437.157 225.58 433.637 216.805C430.117 208.03 429.196 198.374 430.991 189.058C432.785 179.743 437.214 171.186 443.718 164.469C450.222 157.753 458.508 153.179 467.529 151.326C476.55 149.473 485.901 150.424 494.398 154.059C502.896 157.694 510.159 163.849 515.269 171.747C520.379 179.644 523.106 188.929 523.106 198.427C523.09 211.159 518.185 223.364 509.467 232.367C500.749 241.369 488.93 246.434 476.602 246.451ZM476.602 151.999C467.709 151.999 459.017 154.722 451.623 159.824C444.23 164.925 438.467 172.176 435.064 180.66C431.662 189.144 430.771 198.479 432.506 207.485C434.241 216.491 438.523 224.764 444.81 231.257C451.098 237.75 459.109 242.172 467.83 243.964C476.552 245.755 485.592 244.836 493.807 241.321C502.022 237.807 509.044 231.857 513.984 224.222C518.924 216.586 521.561 207.61 521.561 198.427C521.549 186.118 516.808 174.316 508.379 165.612C499.95 156.907 488.522 152.012 476.602 151.999Z" fill="white"/>
</svg>
